<svg height="207" viewBox="0 0 76 207" width="76" xmlns="http://www.w3.org/2000/svg"><path d="m29.575985.31868132-9.8323171 1.37195122 4.5731707 2.05792683 2.7439025.91463414 2.0579268.91463415-1.6006097 1.14329268 2.2865853 2.28658537 6.1737805 3.65853659-2.5152439.9146341.6859756.9146342.4573171 2.2865854 2.5152439 4.8018292-.2286585.2286586-1.8292683-.2286586-.2286586 6.402439h-.457317l-3.2012196-5.2591463-1.6006097 1.1432927-2.2865854-3.8871951-1.1432927-1.8292683-5.2591463-1.8292683-3.8871951-.6859756v2.7439024l-5.7164634-2.2865854-7.08841467 4.8018293-3.88719512 3.4298781 7.08841463 1.6006097 5.94512196-.6859756h3.6585366l-.6859756 1.3719512 10.0609756 1.3719512.2286585.4573171-.4573171 1.1432927v.6859756l1.6006098 1.1432927 2.7439024 3.429878-.2286585.2286586-5.4878049-2.7439025-1.3719512-.9146341-.2286585.2286585.457317 1.6006098-.457317.4573171-5.2591464-1.1432927-9.60365851 2.7439024-.22865854.4573171 1.37195122 1.3719512-.22865854.2286585-3.88719512 1.3719513-2.05792683 1.8292683-2.05792683 9.375h.22865854l2.28658537-1.6006098 6.17378048-5.2591463 2.28658536-1.3719513.6859756 2.2865854 2.2865854-.9146341 5.0304878-3.4298781.6859756 1.3719512h.2286585l2.0579269-1.1432927h2.2865853l2.7439025-.6859756 3.8871951 1.1432927v.2286586l-4.3445122.2286585-1.1432927.9146341.9146342.2286586.6859756.6859756-.2286586.2286585-5.4878048 2.5152439-2.5152439 1.8292683-2.2865854 4.1158537 1.6006097 1.1432927-3.429878 5.7164634v2.0579268l1.6006098 7.0884146 6.6310975-7.5457317.4573171-1.1432927 1.8292683-5.0304878 1.3719512 1.1432927h.4573171l1.8292683-2.2865853.9146341-5.0304878.6859756-.4573171 1.1432927 1.6006097 2.2865854-2.5152439.2286585.2286586-.2286585 8.0030488.457317 34.527439.4573171 22.865854.4573171 60.82317.6859756 33.612805 7.5457317-.914634-.6859756-13.948171-.9146342-28.353658-.457317-36.128049-.9146342-24.92378-1.1432927-37.2713419v-5.945122l-.457317-2.7439024v-3.8871951h.457317l.2286586 2.5152439 1.6006097-.2286585v.6859756l-.6859756 3.2012195 1.1432927 3.429878 1.8292683-.2286585.6859756 5.9451219 2.0579268 3.8871952h.2286586l.6859756-4.3445122v-3.2012195l1.6006097-.9146342.9146342-3.429878-4.3445122-4.8018293.2286585-.2286585 2.2865854-.9146342v-.6859756l-5.4878049-5.945122 1.3719512-1.1432926-1.8292683-2.5152439.2286586-.2286586 4.5731707 2.0579269.6859756-1.3719513 1.1432927 1.8292683 5.2591464 5.4878049 1.3719512-.9146341.2286585.2286585.9146342 5.2591463 1.1432926 2.0579269 1.3719513-.6859756.2286585.2286585.9146341 5.9451219 4.5731708 5.4878049h.457317l.2286586-6.402439-.9146342-8.2317073 1.6006098-.6859756-2.5152439-4.3445122-4.1158537-3.8871951 1.1432927-1.8292683-7.7743902-2.972561.6859756-1.1432927-.2286586-.2286585-8.4603658-.2286586v-.9146341l.6859756-.6859756 2.972561-.6859756 1.3719512-.4573171-.9146342-1.1432927v-.6859756l4.5731708.6859756h1.3719512l3.6585366 1.1432927.2286585-1.8292683 5.2591464 3.429878 2.0579268 1.8292683.9146341-1.3719512 1.8292683 3.6585366 4.1158537 3.8871951 1.3719512-5.4878049-2.0579268-4.3445121 1.1432927-1.3719513-7.7743903-2.9725609.2286586-2.2865854-2.0579269.2286585h-3.8871951v-1.8292683l-7.0884146 2.0579269-.9146342-1.8292683-5.4878049 2.9725609h-.9146341l-.6859756-.9146341 2.5152439-3.2012195 2.5152439-2.0579268-.9146342-.4573171-.6859756-.6859756 6.6310976-2.7439025 2.2865854-2.0579268-1.1432927-1.1432927 5.7164634-4.1158536-.9146342-.6859756 4.3445122-4.34451224 2.2865854-4.34451219h-5.2591463l-4.3445122 2.05792683-5.0304878 5.2591463-1.6006098-1.14329264-.6859756.68597564-4.1158537 7.7743902-.6859756-.2286585h-.9146341l-1.8292683 5.2591463-1.8292683 4.1158537-1.8292683 2.7439024v.6859756l-.6859756.9146342-.2286585-.2286586 1.8292683-9.1463414-1.3719513-.4573171 1.8292683-10.5182927-1.1432927.4573171h-.9146341l.2286585-4.57317075-.9146341-1.14329268-.6859756-1.82926829-2.0579268-1.37195122v1.60060975l-4.5731708-4.11585365" fill="#2e8b57"/></svg>